<?xml version="1.0" encoding="UTF-8"?>
<svg version="1.1" xmlns="http://www.w3.org/2000/svg" width="64" height="64">
<path d="M0 0 C0.78503906 0.14824219 1.57007813 0.29648438 2.37890625 0.44921875 C4.4375 1.3125 4.4375 1.3125 5.71484375 3.39453125 C5.95332031 4.02746094 6.19179688 4.66039062 6.4375 5.3125 C8.5007984 5.25208131 10.56327414 5.16318362 12.625 5.0625 C13.77355469 5.01609375 14.92210938 4.9696875 16.10546875 4.921875 C19.95478836 4.21789627 21.52152251 2.83106999 24.4375 0.3125 C28.31056828 -0.17163353 30.70558676 0.01018801 34.3125 1.5 C36.4375 3.3125 36.4375 3.3125 37.375 5.5625 C37.45582604 9.11884585 36.59581391 11.96625982 35.4375 15.3125 C34.9425 15.8075 34.9425 15.8075 34.4375 16.3125 C34.69813341 17.82237631 35.02291019 19.32129612 35.375 20.8125 C37.39413665 30.61372584 37.39413665 30.61372584 36.4375 35.3125 C34 37.9375 34 37.9375 31.4375 40.3125 C30.71531723 43.44195865 30.47576628 46.38454272 30.34375 49.5859375 C30.06597404 53.76646573 29.78260599 55.83921179 27.25 59.3125 C24.11244004 61.54365375 22.2720661 62.23091349 18.4375 62.3125 C16.0625 61.375 16.0625 61.375 14.4375 60.3125 C14.4375 59.6525 14.4375 58.9925 14.4375 58.3125 C11.02093976 58.14572718 11.02093976 58.14572718 7.4375 58.3125 C6.7775 58.9725 6.1175 59.6325 5.4375 60.3125 C2.75 61.3125 2.75 61.3125 -0.5625 61.3125 C-3.44746265 59.76211653 -5.63811452 57.97026409 -7.5625 55.3125 C-7.5 51.9375 -7.5 51.9375 -6.5625 49.3125 C-7.366875 49.333125 -8.17125 49.35375 -9 49.375 C-11.5625 49.3125 -11.5625 49.3125 -12.5625 48.3125 C-12.60330783 46.31291636 -12.60504356 44.31204746 -12.5625 42.3125 C-10.5825 41.8175 -10.5825 41.8175 -8.5625 41.3125 C-8.5625 40.6525 -8.5625 39.9925 -8.5625 39.3125 C-7.5725 38.8175 -7.5725 38.8175 -6.5625 38.3125 C-6.87574219 37.735 -7.18898438 37.1575 -7.51171875 36.5625 C-10.81424431 29.4909211 -9.27350124 23.01255799 -7.05859375 15.81640625 C-6.89488281 14.99011719 -6.73117188 14.16382813 -6.5625 13.3125 C-7.2225 12.6525 -7.8825 11.9925 -8.5625 11.3125 C-9.046875 9.47265625 -9.046875 9.47265625 -9.3125 7.375 C-9.41046875 6.68535156 -9.5084375 5.99570313 -9.609375 5.28515625 C-9.5625 3.3125 -9.5625 3.3125 -7.5625 0.3125 C-4.38151772 -0.74782743 -3.19716272 -0.6583943 0 0 Z " fill="#FDF3F5" transform="translate(16.5625,0.6875)"/>
<path d="M0 0 C0.86625 0.09925781 1.7325 0.19851562 2.625 0.30078125 C5 0.6875 5 0.6875 8 1.6875 C9.77166975 1.83585948 11.54767612 1.93520018 13.32421875 2.00390625 C14.86625977 2.06674805 14.86625977 2.06674805 16.43945312 2.13085938 C18.04723633 2.18983398 18.04723633 2.18983398 19.6875 2.25 C20.77095703 2.29318359 21.85441406 2.33636719 22.97070312 2.38085938 C25.64700791 2.48696838 28.32340526 2.58902361 31 2.6875 C32.125 7.4375 32.125 7.4375 31 9.6875 C30.89841313 11.12382545 30.81768573 12.56167829 30.75 14 C30.37553212 17.57760856 30.02509478 18.6530843 27.8125 21.6875 C24.67494004 23.91865375 22.8345661 24.60591349 19 24.6875 C16.625 23.75 16.625 23.75 15 22.6875 C15 22.0275 15 21.3675 15 20.6875 C11.58343976 20.52072718 11.58343976 20.52072718 8 20.6875 C7.34 21.3475 6.68 22.0075 6 22.6875 C3.3125 23.6875 3.3125 23.6875 0 23.6875 C-2.88496265 22.13711653 -5.07561452 20.34526409 -7 17.6875 C-6.9375 14.3125 -6.9375 14.3125 -6 11.6875 C-6.804375 11.708125 -7.60875 11.72875 -8.4375 11.75 C-11 11.6875 -11 11.6875 -12 10.6875 C-12.04080783 8.68791636 -12.04254356 6.68704746 -12 4.6875 C-10.68 4.3575 -9.36 4.0275 -8 3.6875 C-8 3.0275 -8 2.3675 -8 1.6875 C-4.59558729 -0.58210847 -3.88753927 -0.48015738 0 0 Z " fill="#5A75E8" transform="translate(16,38.3125)"/>
<path d="M0 0 C0.86625 0.09925781 1.7325 0.19851562 2.625 0.30078125 C5 0.6875 5 0.6875 8 1.6875 C9.45674076 1.81067073 10.91767746 1.88804059 12.37890625 1.93359375 C13.21744141 1.96646484 14.05597656 1.99933594 14.91992188 2.03320312 C16.68541125 2.09453202 18.451046 2.15180676 20.21679688 2.20507812 C21.05404297 2.23923828 21.89128906 2.27339844 22.75390625 2.30859375 C23.52033447 2.3336499 24.2867627 2.35870605 25.07641602 2.38452148 C27 2.6875 27 2.6875 29 4.6875 C28.96712417 7.41619407 28.43602229 9.9841618 28 12.6875 C26.68 12.6875 25.36 12.6875 24 12.6875 C23.34 11.6975 22.68 10.7075 22 9.6875 C21.01 9.6875 20.02 9.6875 19 9.6875 C18.67 10.6775 18.34 11.6675 18 12.6875 C10.40501039 12.95192904 3.42640842 12.29631575 -4 10.6875 C-4 10.0275 -4 9.3675 -4 8.6875 C-4.99 8.3575 -5.98 8.0275 -7 7.6875 C-7.33 5.7075 -7.66 3.7275 -8 1.6875 C-4.59558729 -0.58210847 -3.88753927 -0.48015738 0 0 Z " fill="#080708" transform="translate(16,38.3125)"/>
<path d="M0 0 C0.78503906 0.14824219 1.57007813 0.29648438 2.37890625 0.44921875 C4.4375 1.3125 4.4375 1.3125 5.71484375 3.39453125 C5.95332031 4.02746094 6.19179688 4.66039062 6.4375 5.3125 C8.5007984 5.25208131 10.56327414 5.16318362 12.625 5.0625 C13.77355469 5.01609375 14.92210938 4.9696875 16.10546875 4.921875 C19.95478836 4.21789627 21.52152251 2.83106999 24.4375 0.3125 C28.31056828 -0.17163353 30.70558676 0.01018801 34.3125 1.5 C36.4375 3.3125 36.4375 3.3125 37.375 5.5625 C37.45582604 9.11884585 36.59581391 11.96625982 35.4375 15.3125 C34.9425 15.8075 34.9425 15.8075 34.4375 16.3125 C34.69813341 17.82237631 35.02291019 19.32129612 35.375 20.8125 C36.08407428 24.25446471 36.68610662 27.61276368 36.875 31.125 C36.93494141 32.15560547 36.93494141 32.15560547 36.99609375 33.20703125 C36.01477005 36.90586672 34.58204044 38.1226875 31.4375 40.3125 C27.3166096 40.9261531 23.27945018 40.7828254 19.125 40.625 C18.00287109 40.60244141 16.88074219 40.57988281 15.72460938 40.55664062 C12.96087464 40.49783776 10.19987446 40.41570401 7.4375 40.3125 C7.4375 39.9825 7.4375 39.6525 7.4375 39.3125 C8.04746826 39.29791748 8.65743652 39.28333496 9.28588867 39.26831055 C12.06621064 39.19355225 14.84536824 39.09698518 17.625 39 C18.58470703 38.97744141 19.54441406 38.95488281 20.53320312 38.93164062 C27.54392647 38.78202726 27.54392647 38.78202726 33.4375 35.3125 C34.11557101 33.38866439 34.11557101 33.38866439 33.875 31.25 C33.83246094 30.46238281 33.78992187 29.67476562 33.74609375 28.86328125 C33.3212976 25.35199157 32.66287825 21.92352983 31.875 18.4765625 C31.4375 16.3125 31.4375 16.3125 31.4375 13.3125 C32.4275 13.3125 33.4175 13.3125 34.4375 13.3125 C34.293125 12.013125 34.14875 10.71375 34 9.375 C33.91878906 8.64410156 33.83757813 7.91320312 33.75390625 7.16015625 C33.61863386 5.30109771 33.61863386 5.30109771 32.4375 4.3125 C27.53888835 3.88296724 27.53888835 3.88296724 23.171875 5.80078125 C19.61783207 7.76565927 16.97915951 7.74595834 12.9375 7.75 C11.6484375 7.76933594 10.359375 7.78867188 9.03125 7.80859375 C4.91293436 7.24008713 3.48474661 6.02407744 0.4375 3.3125 C-3.252248 2.51027849 -3.252248 2.51027849 -6.5625 2.3125 C-6.376875 4.2615625 -6.376875 4.2615625 -6.1875 6.25 C-6.11789062 6.98089844 -6.04828125 7.71179688 -5.9765625 8.46484375 C-5.83992187 9.07457031 -5.70328125 9.68429687 -5.5625 10.3125 C-4.9025 10.6425 -4.2425 10.9725 -3.5625 11.3125 C-3.67692461 12.91745567 -3.80444694 14.52148119 -3.9375 16.125 C-4.00710937 17.01832031 -4.07671875 17.91164063 -4.1484375 18.83203125 C-4.5625 21.3125 -4.5625 21.3125 -6.5625 24.3125 C-7.00501636 27.66298103 -7.28648285 30.15715455 -5.44140625 33.1015625 C-4.21695111 34.56535873 -2.8951811 35.94650187 -1.5625 37.3125 C-6.3125 36.5625 -6.3125 36.5625 -8.5625 34.3125 C-10.00362458 27.43944431 -9.11516828 22.49814011 -7.05859375 15.81640625 C-6.89488281 14.99011719 -6.73117187 14.16382813 -6.5625 13.3125 C-7.2225 12.6525 -7.8825 11.9925 -8.5625 11.3125 C-9.046875 9.47265625 -9.046875 9.47265625 -9.3125 7.375 C-9.41046875 6.68535156 -9.5084375 5.99570313 -9.609375 5.28515625 C-9.5625 3.3125 -9.5625 3.3125 -7.5625 0.3125 C-4.38151772 -0.74782743 -3.19716272 -0.6583943 0 0 Z " fill="#F1CBD5" transform="translate(16.5625,0.6875)"/>
<path d="M0 0 C2.79192205 -0.05380578 5.5828141 -0.09357669 8.375 -0.125 C9.1690625 -0.14175781 9.963125 -0.15851562 10.78125 -0.17578125 C12.85492015 -0.19335473 14.92883241 -0.10335168 17 0 C17.66 0.66 18.32 1.32 19 2 C18.96712417 4.72869407 18.43602229 7.2966618 18 10 C16.68 10 15.36 10 14 10 C13.34 9.01 12.68 8.02 12 7 C11.01 7 10.02 7 9 7 C8.67 7.99 8.34 8.98 8 10 C4.37 10 0.74 10 -3 10 C-2.01 9.67 -1.02 9.34 0 9 C0 6.03 0 3.06 0 0 Z " fill="#141312" transform="translate(26,41)"/>
<path d="M0 0 C5.75 1.625 5.75 1.625 8 5 C7.79296875 7.4453125 7.79296875 7.4453125 7.1875 10.125 C6.89939453 11.45917969 6.89939453 11.45917969 6.60546875 12.8203125 C6 15 6 15 5 16 C5.26063341 17.50987631 5.58541019 19.00879612 5.9375 20.5 C6.64657428 23.94196471 7.24860662 27.30026368 7.4375 30.8125 C7.47746094 31.49957031 7.51742187 32.18664063 7.55859375 32.89453125 C6.57727005 36.59336672 5.14454044 37.8101875 2 40 C-2.1208904 40.6136531 -6.15804982 40.4703254 -10.3125 40.3125 C-11.43462891 40.28994141 -12.55675781 40.26738281 -13.71289062 40.24414062 C-16.47662536 40.18533776 -19.23762554 40.10320401 -22 40 C-22 39.67 -22 39.34 -22 39 C-21.39003174 38.98541748 -20.78006348 38.97083496 -20.15161133 38.95581055 C-17.37128936 38.88105225 -14.59213176 38.78448518 -11.8125 38.6875 C-10.85279297 38.66494141 -9.89308594 38.64238281 -8.90429688 38.61914062 C-1.89357353 38.46952726 -1.89357353 38.46952726 4 35 C4.67807101 33.07616439 4.67807101 33.07616439 4.4375 30.9375 C4.39496094 30.14988281 4.35242188 29.36226562 4.30859375 28.55078125 C3.8837976 25.03949157 3.22537825 21.61102983 2.4375 18.1640625 C2 16 2 16 2 13 C2.99 13 3.98 13 5 13 C4.91917469 7.40626662 4.91917469 7.40626662 1.9375 3.125 C1.298125 2.75375 0.65875 2.3825 0 2 C0 1.34 0 0.68 0 0 Z " fill="#F1C8D3" transform="translate(46,1)"/>
<path d="M0 0 C3.96 0.33 7.92 0.66 12 1 C12 1.99 12 2.98 12 4 C8.8125 5.25 8.8125 5.25 5 6 C2.0625 4.25 2.0625 4.25 0 2 C0 1.34 0 0.68 0 0 Z " fill="#E8C5D7" transform="translate(11,56)"/>
<path d="M0 0 C-0.99 0.495 -0.99 0.495 -2 1 C-2.46651207 3.12576782 -2.46651207 3.12576782 -2.625 5.5625 C-2.69976563 6.38878906 -2.77453125 7.21507812 -2.8515625 8.06640625 C-2.90054687 8.70449219 -2.94953125 9.34257813 -3 10 C-2.01 10.33 -1.02 10.66 0 11 C-1.32 11 -2.64 11 -4 11 C-4 10.34 -4 9.68 -4 9 C-4.99 8.67 -5.98 8.34 -7 8 C-7.33 6.02 -7.66 4.04 -8 2 C-4.77208445 -0.1519437 -3.71599191 -0.20086443 0 0 Z " fill="#333032" transform="translate(16,38)"/>
<path d="M0 0 C1.98 0 3.96 0 6 0 C5.67 2.64 5.34 5.28 5 8 C3.35 8 1.7 8 0 8 C0 5.36 0 2.72 0 0 Z " fill="#030100" transform="translate(28,42)"/>
<path d="M0 0 C2.97 0.495 2.97 0.495 6 1 C5.67 1.99 5.34 2.98 5 4 C4.01 4.33 3.02 4.66 2 5 C1.67 5.99 1.34 6.98 1 8 C-2.63 8 -6.26 8 -10 8 C-9.01 7.67 -8.02 7.34 -7 7 C-7 5.02 -7 3.04 -7 1 C-6.67 1 -6.34 1 -6 1 C-6 2.98 -6 4.96 -6 7 C-4.02 7 -2.04 7 0 7 C0 4.69 0 2.38 0 0 Z " fill="#363237" transform="translate(33,43)"/>
<path d="M0 0 C0.99 0.33 1.98 0.66 3 1 C3.33 3.31 3.66 5.62 4 8 C2.33388095 8.042721 0.66617115 8.04063832 -1 8 C-2 7 -2 7 -2.0625 3.9375 C-2.041875 2.968125 -2.02125 1.99875 -2 1 C-1.34 0.67 -0.68 0.34 0 0 Z " fill="#EECED7" transform="translate(6,42)"/>
<path d="M0 0 C-1.75 3.875 -1.75 3.875 -4 5 C-5.81341842 5.08471364 -7.62994161 5.10721083 -9.4453125 5.09765625 C-11.05986328 5.09282227 -11.05986328 5.09282227 -12.70703125 5.08789062 C-13.83496094 5.07951172 -14.96289062 5.07113281 -16.125 5.0625 C-17.26066406 5.05798828 -18.39632812 5.05347656 -19.56640625 5.04882812 C-22.37765638 5.03701615 -25.1888023 5.02054507 -28 5 C-28 4.67 -28 4.34 -28 4 C-27.08504761 3.97812622 -27.08504761 3.97812622 -26.15161133 3.95581055 C-23.37128936 3.88105225 -20.59213176 3.78448518 -17.8125 3.6875 C-16.85279297 3.66494141 -15.89308594 3.64238281 -14.90429688 3.61914062 C-9.4701782 3.41230566 -4.67154609 0 0 0 Z " fill="#C7B1B7" transform="translate(52,36)"/>
<path d="M0 0 C3.96 0 7.92 0 12 0 C10 3 10 3 7.125 3.8125 C3.92411417 4.00455315 2.63390925 3.72217143 0 2 C0 1.34 0 0.68 0 0 Z " fill="#F2CFD9" transform="translate(31,59)"/>
<path d="M0 0 C1.32 0 2.64 0 4 0 C5.26264601 4.29299643 4.62950412 6.87831311 3 11 C0.69 11 -1.62 11 -4 11 C-4 10.67 -4 10.34 -4 10 C-2.35 10 -0.7 10 1 10 C0.67 9.01 0.34 8.02 0 7 C0.32550502 5.33178677 0.65846063 3.66500443 1 2 C0.67 1.34 0.34 0.68 0 0 Z " fill="#58555D" transform="translate(43,41)"/>
<path d="M0 0 C0.99 0 1.98 0 3 0 C3 0.99 3 1.98 3 3 C3.66 3 4.32 3 5 3 C4.67 4.32 4.34 5.64 4 7 C2.68 7.33 1.36 7.66 0 8 C-0.98120464 4.94736336 -0.98120464 3.05263664 0 0 Z " fill="#F7D2D7" transform="translate(21,27)"/>
<path d="M0 0 C1.98 0.495 1.98 0.495 4 1 C4 2.32 4 3.64 4 5 C2.35 4.67 0.7 4.34 -1 4 C-0.67 2.68 -0.34 1.36 0 0 Z " fill="#DBC9D4" transform="translate(35,47)"/>
<path d="M0 0 C1.98 0.495 1.98 0.495 4 1 C3.67 2.32 3.34 3.64 3 5 C1.68 5 0.36 5 -1 5 C-0.67 3.35 -0.34 1.7 0 0 Z " fill="#98A9F6" transform="translate(16,23)"/>
<path d="M0 0 C2.97 0.495 2.97 0.495 6 1 C5.67 1.99 5.34 2.98 5 4 C2.9375 4.6875 2.9375 4.6875 1 5 C0.67 3.35 0.34 1.7 0 0 Z " fill="#7D4B2E" transform="translate(33,43)"/>
<path d="M0 0 C1.485 0.99 1.485 0.99 3 2 C3.40843923 4.71203652 3.13336867 7.2437142 3 10 C0.64551835 7.44931155 0.01672076 6.28982642 -0.1875 2.75 C-0.125625 1.8425 -0.06375 0.935 0 0 Z " fill="#FCDFE5" transform="translate(48,4)"/>
<path d="M0 0 C1.32 0 2.64 0 4 0 C4 1.32 4 2.64 4 4 C2.35 4 0.7 4 -1 4 C-0.67 2.68 -0.34 1.36 0 0 Z " fill="#91A5F6" transform="translate(32,25)"/>
<path d="M0 0 C2.31 0 4.62 0 7 0 C6.67 0.99 6.34 1.98 6 3 C3.03 2.505 3.03 2.505 0 2 C0 1.34 0 0.68 0 0 Z " fill="#F6E6EE" transform="translate(14,57)"/>
<path d="M0 0 C0.66 0.66 1.32 1.32 2 2 C1.625 4.125 1.625 4.125 1 6 C-0.9375 5.625 -0.9375 5.625 -3 5 C-3.33 4.34 -3.66 3.68 -4 3 C-2.68 3 -1.36 3 0 3 C0 2.01 0 1.02 0 0 Z " fill="#EBD9EA" transform="translate(36,26)"/>
<path d="M0 0 C0.99 0 1.98 0 3 0 C2.34 2.64 1.68 5.28 1 8 C-0.42944945 5.64561267 -1.08661261 4.51967567 -0.625 1.75 C-0.41875 1.1725 -0.2125 0.595 0 0 Z " fill="#FBDFE5" transform="translate(10,3)"/>
</svg>
